# xmcd CD database file
#
# Track frame offsets:
#	150
#	24218
#	58299
#	82599
#	111504
#	136112
#	161324
#	185709
#	214134
#
# Disc length: 3078 seconds
#
# Revision: 0
# Processed by: cddbd v1.5.2PL0 Copyright (c) Steve Scherf et al.
# Submitted via: CDex 1.51
#
DISCID=710c0409
DTITLE=Rick Germanson - you tell me
DYEAR=2004
DGENRE=Jazz
TTITLE0=Entropy
TTITLE1=Dance of the Forgotten
TTITLE2=In the Cut
TTITLE3=Theme for Eliot
TTITLE4=Angel Eyes 
TTITLE5=It Was A Very Good Year
TTITLE6=Alter Ego
TTITLE7=Erika's Endeavor
TTITLE8=Born to be Blue
EXTD=YEAR: 2004
EXTT0=
EXTT1=
EXTT2=
EXTT3=
EXTT4=
EXTT5=
EXTT6=
EXTT7=
EXTT8=
PLAYORDER=
